<?xml version="1.0" encoding="UTF-8"?>
<svg width="208px" height="208px" viewBox="0 0 208 208" version="1.1" xmlns="http://www.w3.org/2000/svg" xmlns:xlink="http://www.w3.org/1999/xlink">
    <!-- Generator: Sketch 46.2 (44496) - http://www.bohemiancoding.com/sketch -->
    <title>Fatal Error</title>
    <desc>Created with Sketch.</desc>
    <defs></defs>
    <g id="Page-1" stroke="none" stroke-width="1" fill="none" fill-rule="evenodd">
        <g id="Fail-Report" transform="translate(-408.000000, -349.000000)">
            <g id="Fatal-Error" transform="translate(408.000000, 349.000000)">
                <g id="Error-icon-Copy-2" fill="#E74C3C">
                    <circle id="Oval-4" cx="104" cy="104" r="104"></circle>
                </g>
                <path d="M146.686047,144.341094 C143.600777,147.391039 138.605412,147.391039 135.520142,144.341094 L106.193897,115.359474 L75.4752358,145.712113 C72.3899655,148.762629 67.399223,148.762629 64.3139527,145.712113 C61.2286824,142.68159 61.2286824,137.722502 64.3139527,134.671985 L95.027414,104.304494 L65.7208129,75.3228736 C62.6355426,72.2723571 62.6355426,67.3184098 65.7208129,64.2878873 C68.8060831,61.2373709 73.8014477,61.2373709 76.886718,64.2878873 L106.193897,93.2643661 L134.132926,65.6594772 C137.198552,62.6089608 142.213561,62.6089608 145.298831,65.6594772 C148.384101,68.7094224 148.384101,73.6485171 145.298831,76.6996048 L117.378868,104.304494 L146.686047,133.300966 C149.771318,136.351483 149.771318,141.290006 146.686047,144.341094" id="Fill-1" fill="#FFFFFF" transform="translate(105.500000, 105.000000) scale(-1, 1) translate(-105.500000, -105.000000) "></path>
            </g>
        </g>
    </g>
</svg>
