<?xml version="1.0" encoding="UTF-8"?>
<svg width="14px" height="19px" viewBox="0 0 14 19" version="1.1" xmlns="http://www.w3.org/2000/svg" xmlns:xlink="http://www.w3.org/1999/xlink">
    <!-- Generator: Sketch 46.2 (44496) - http://www.bohemiancoding.com/sketch -->
    <title>Drag&amp;Drop Icon Copy</title>
    <desc>Created with Sketch.</desc>
    <defs>
        <polygon id="path-1" points="13.9258368 13.9474614 13.9258368 0 6.96291842 0 0 0 0 13.9474614 13.9258368 13.9474614"></polygon>
    </defs>
    <g id="Page-1" stroke="none" stroke-width="1" fill="none" fill-rule="evenodd">
        <g id="Pass-Table" transform="translate(-882.000000, -133.000000)">
            <g id="Drag&amp;Drop-Icon-Copy" transform="translate(889.000000, 142.500000) rotate(-180.000000) translate(-889.000000, -142.500000) translate(882.000000, 133.000000)">
                <path d="M6.99334754,19 C6.87447652,19 6.75871325,18.9777143 6.64877698,18.9338857 C6.54233692,18.8922857 6.44483161,18.8306286 6.36208806,18.7515143 L3.2601761,15.7856571 C2.91288627,15.4495143 2.91366321,14.9079714 3.2601761,14.5770286 C3.42915941,14.4154571 3.65330508,14.3266857 3.89143558,14.3266857 C4.12917761,14.3266857 4.35332328,14.4150857 4.52230659,14.5759143 L6.10026105,16.0839143 L6.10026105,6.85465714 C6.10026105,6.38368571 6.50038244,6 6.99218213,6 C7.48514723,6 7.88604556,6.38368571 7.88604556,6.85465714 L7.88604556,16.0842857 L9.4760425,14.5655143 C9.64347194,14.4043143 9.86761761,14.3155429 10.1061366,14.3155429 C10.3497056,14.3155429 10.5757936,14.4061714 10.7436115,14.5703429 C10.9075448,14.7274571 11,14.9414 11,15.1694571 C10.9996115,15.3982571 10.9063794,15.6125714 10.7373961,15.7734 L7.62616088,18.7500286 C7.5426404,18.8298857 7.44396969,18.8922857 7.33247955,18.9357429 C7.22759336,18.9777143 7.11221855,19 6.99334754,19" id="Fill-1" fill="#2D5578"></path>
                <g id="Group-5">
                    <mask id="mask-2" fill="white">
                        <use xlink:href="#path-1"></use>
                    </mask>
                    <g id="Clip-4"></g>
                    <path d="M10.1312105,13.9474614 C9.70457895,13.9474614 9.35715789,13.5930918 9.35715789,13.1569155 C9.35715789,12.7203623 9.70457895,12.3656157 10.1312105,12.3656157 L12.3778421,12.3656157 L12.3778421,1.58335373 L1.54626316,1.58335373 L1.54626316,12.3656157 L3.79473684,12.3656157 C4.22136842,12.3656157 4.56842105,12.7203623 4.56842105,13.1569155 C4.56842105,13.5930918 4.22136842,13.9474614 3.79473684,13.9474614 L0.812368421,13.9474614 C0.364368421,13.9474614 0,13.5746193 0,13.1162007 L0,0.83126071 C0,0.372842105 0.364368421,0 0.812368421,0 L13.1135789,0 C13.5615789,0 13.9259474,0.372842105 13.9259474,0.83126071 L13.9259474,13.1162007 C13.9259474,13.5746193 13.5615789,13.9474614 13.1135789,13.9474614 L10.1312105,13.9474614 Z" id="Fill-3" fill="#2D5578" mask="url(#mask-2)"></path>
                </g>
            </g>
        </g>
    </g>
</svg>