<?xml version="1.0" encoding="UTF-8"?>
<svg width="22px" height="22px" viewBox="0 0 22 22" version="1.1" xmlns="http://www.w3.org/2000/svg" xmlns:xlink="http://www.w3.org/1999/xlink">
    <!-- Generator: Sketch 46.2 (44496) - http://www.bohemiancoding.com/sketch -->
    <title>Api Logo</title>
    <desc>Created with Sketch.</desc>
    <defs>
        <polygon id="path-1" points="0 3.05246202e-15 21.381709 3.05246202e-15 21.381709 21.9523903 5.83218935e-21 21.9523903"></polygon>
        <polygon id="path-3" points="6.60086854e-05 0.0461409396 2.77254081 0.0461409396 2.77254081 3.69120019 6.60086854e-05 3.69120019 6.60086854e-05 0.0461409396"></polygon>
        <polygon id="path-5" points="1.28604349e-05 3.69127517 3.2370706 3.69127517 3.2370706 0.0461467072 1.28604349e-05 0.0461467072"></polygon>
        <polygon id="path-7" points="0.0342096025 0.0461409396 0.715675787 0.0461409396 0.715675787 3.69120019 0.0342096025 3.69120019 0.0342096025 0.0461409396"></polygon>
    </defs>
    <g id="Page-1" stroke="none" stroke-width="1" fill="none" fill-rule="evenodd">
        <g id="Main-window" transform="translate(-602.000000, -740.000000)">
            <g id="Api-Logo" transform="translate(602.000000, 740.000000)">
                <g id="Page-1">
                    <g id="Group-3">
                        <mask id="mask-2" fill="white">
                            <use xlink:href="#path-1"></use>
                        </mask>
                        <g id="Clip-2"></g>
                        <path d="M20.6867841,14.3562337 L18.6212615,17.9278935 C18.5204007,18.102202 18.2961937,18.1621844 18.1215297,18.0614978 L17.1578917,17.5060304 C17.0354063,17.4355767 16.8811833,17.4527605 16.7773639,17.5486141 C15.7921013,18.4581759 14.6067846,19.144509 13.3496012,19.5334006 C13.2144746,19.5751788 13.1222205,19.6999764 13.1222205,19.8411523 L13.1222205,20.9427971 C13.1222205,21.1441702 12.9580998,21.3080073 12.7565932,21.3080073 L8.62527911,21.3080073 C8.42355741,21.3080073 8.25949043,21.1441702 8.25949043,20.9427971 L8.25949043,19.8411523 C8.25949043,19.6999764 8.16723638,19.5751788 8.03227111,19.5334006 C6.76712643,19.1421999 5.58030356,18.4566723 4.60015129,17.551138 C4.53898927,17.4946998 4.46018333,17.465541 4.38078567,17.465541 C4.32548703,17.465541 4.26981184,17.4796103 4.21956969,17.5087691 L3.26028889,18.0614978 C3.08546342,18.1621844 2.86147165,18.102202 2.7606108,17.9278935 L0.694926843,14.3562337 C0.594227372,14.1819252 0.654152164,13.9581058 0.828977634,13.8574193 L1.78739775,13.3051201 C1.909668,13.2343979 1.97179828,13.092685 1.94076004,12.9549995 C1.79326113,12.301799 1.71822066,11.6360866 1.71822066,10.97612 C1.71822066,10.327484 1.79428319,9.6623622 1.94414896,8.99906623 C1.97518721,8.86148816 1.91300313,8.71966783 1.79073289,8.64916042 L0.828977634,8.09476699 C0.744308314,8.04611526 0.683791805,7.96744552 0.658563145,7.87304184 C0.633173108,7.77885295 0.646190881,7.6804755 0.694926843,7.59616732 L2.7606108,4.02450752 C2.80945435,3.93998453 2.88836787,3.87957262 2.98277363,3.85438756 C3.07712559,3.82904141 3.17567336,3.84203668 3.26028889,3.89090321 L4.22398067,4.44615583 C4.34646608,4.51682435 4.50074284,4.49964051 4.60456227,4.40378694 C5.58960965,3.49401035 6.77487254,2.8078921 8.03227111,2.41900047 C8.16745155,2.37727597 8.25949043,2.25242468 8.25949043,2.11124875 L8.25949043,1.00960392 C8.25949043,0.808230871 8.42355741,0.644393758 8.62527911,0.644393758 L12.7565932,0.644393758 C12.9583149,0.644393758 13.1224357,0.808230871 13.1224357,1.00960392 L13.1224357,2.11124875 C13.1224357,2.25242468 13.2144746,2.37727597 13.3496012,2.41900047 C14.6145307,2.81020118 15.8013536,3.49572874 16.7817748,4.40104827 C16.8855943,4.49690184 17.0398172,4.51430047 17.1623026,4.44363196 L18.1215297,3.89090321 C18.2062528,3.84203668 18.3048005,3.82904141 18.3991525,3.85438756 C18.4935045,3.87957262 18.5722566,3.93998453 18.6212615,4.02450752 L20.6867841,7.59616732 C20.7357352,7.6804755 20.748753,7.77885295 20.723363,7.87304184 C20.6981343,7.96744552 20.6376178,8.04611526 20.5529485,8.09476699 L19.5945284,8.64728094 C19.472043,8.71778835 19.4098589,8.85955498 19.4411661,8.99718675 C19.588665,9.65038722 19.6634903,10.3161534 19.6634903,10.97612 C19.6634903,11.6249171 19.5875891,12.2900388 19.4377772,12.9533348 C19.4066851,13.0907518 19.4688692,13.2325184 19.5911932,13.3032406 L20.5529485,13.8574193 C20.7275588,13.9581058 20.787645,14.1819252 20.6867841,14.3562337 M20.8757032,13.299428 L20.117122,12.8623142 C20.2444488,12.2296269 20.3089997,11.596349 20.3089997,10.97612 C20.3089997,10.3470306 20.2455246,9.71310821 20.1202958,9.08820736 L20.8757032,8.65297308 C21.109539,8.51807999 21.2770487,8.3003286 21.3468175,8.04004722 C21.4167477,7.77949734 21.3808143,7.50745578 21.2457415,7.27397044 L19.1801651,3.70231064 C19.0450385,3.4686642 18.8269639,3.30165882 18.5661781,3.23184949 C18.3052309,3.16220127 18.0326645,3.19785772 17.7986136,3.33275082 L17.0427758,3.7684147 C16.0879598,2.92978992 14.9639665,2.28077801 13.76773,1.87695792 L13.76773,1.00960392 C13.76773,0.452901413 13.3140444,0 12.7565932,0 L8.62527911,0 C8.06766655,0 7.61398101,0.452901413 7.61398101,1.00960392 L7.61398101,1.87695792 C6.42398438,2.27927442 5.30176624,2.92914553 4.34334612,3.77115337 L3.5830436,3.33275082 C3.34899264,3.19785772 3.07648008,3.16220127 2.81569427,3.23184949 C2.55474709,3.30165882 2.33667248,3.4686642 2.20149205,3.70231064 L0.13591568,7.27397044 C0.00089662466,7.50745578 -0.0350367334,7.77949734 0.0348934544,8.04004722 C0.104877435,8.3003286 0.272171961,8.51807999 0.505953958,8.65297308 L1.26453512,9.09008685 C1.13726218,9.72255932 1.07271123,10.3560521 1.07271123,10.97612 C1.07271123,11.6052094 1.13618633,12.2392928 1.26141516,12.8639789 L0.506222921,13.299428 C0.0231666999,13.5778061 -0.1428906,14.1963704 0.13591568,14.6784306 L2.20149205,18.2500904 C2.48029833,18.7320969 3.10004117,18.8980283 3.5830436,18.6197039 L4.33893514,18.1839864 C5.29396634,19.02245 6.41774445,19.671623 7.61398101,20.0754431 L7.61398101,20.9427971 C7.61398101,21.4994996 8.06766655,21.9524011 8.62527911,21.9524011 L12.7565932,21.9524011 C13.3140444,21.9524011 13.76773,21.4994996 13.76773,20.9427971 L13.76773,20.0752283 C14.9576728,19.6731266 16.0799447,19.0232555 17.0383648,18.1812477 L17.7987749,18.6197039 C18.2816698,18.8980283 18.9013588,18.7320969 19.1801651,18.2500904 L21.2457415,14.6784306 C21.5245478,14.1963704 21.3585443,13.5778061 20.8757032,13.299428" id="Fill-1" fill="#69BEAB" mask="url(#mask-2)"></path>
                    </g>
                    <path d="M10.852349,16.6392504 C7.58817555,16.6392504 4.93242613,14.0432236 4.93242613,10.852243 C4.93242613,7.66147443 7.58817555,5.06544761 10.852349,5.06544761 C14.1167393,5.06544761 16.7722719,7.66147443 16.7722719,10.852243 C16.7722719,14.0432236 14.1167393,16.6392504 10.852349,16.6392504 M10.852349,4.4295302 C7.22945313,4.4295302 4.28187919,7.31076598 4.28187919,10.852243 C4.28187919,14.393879 7.22945313,17.2751678 10.852349,17.2751678 C14.4754617,17.2751678 17.4228188,14.393879 17.4228188,10.852243 C17.4228188,7.31076598 14.4754617,4.4295302 10.852349,4.4295302" id="Fill-4" fill="#69BEAB"></path>
                    <path d="M12.9212908,3.71932631 C13.1438161,3.78943875 13.3657001,3.87069104 13.58053,3.96123534 C13.6216255,3.97834108 13.6642174,3.98657718 13.7060077,3.98657718 C13.8306304,3.98657718 13.9493747,3.91419454 14.0011583,3.79376798 C14.0704704,3.63290006 13.9946921,3.4466903 13.8318596,3.37821452 C13.5984859,3.28022606 13.3575771,3.19179358 13.1160805,3.11566245 C12.9473696,3.06265576 12.7670087,3.15467834 12.7131409,3.32130096 C12.6595403,3.48792359 12.7526333,3.66610844 12.9212908,3.71932631" id="Fill-6" fill="#69BEAB"></path>
                    <path d="M3.8344079,14.489501 C3.75191967,14.3339197 3.56218634,14.2764199 3.4109926,14.3614917 C3.25964282,14.4464029 3.20399187,14.6415487 3.2864801,14.7973442 C3.41588156,15.0416378 3.55932578,15.2819161 3.71249591,15.5115404 C3.77303582,15.6022872 3.87076305,15.6510067 3.97010259,15.6510067 C4.03085054,15.6510067 4.09243066,15.6326432 4.14646929,15.5946313 C4.28850923,15.4942476 4.32465634,15.2940157 4.22692912,15.1478571 C4.08592938,14.9362216 3.95366736,14.7147351 3.8344079,14.489501" id="Fill-8" fill="#69BEAB"></path>
                    <path d="M10.0325024,18.5594754 C8.25702473,18.4124197 6.57145866,17.6736941 5.2867392,16.4788466 C5.15518552,16.3566096 4.94548387,16.3598975 4.81818276,16.4860589 C4.69088166,16.6122203 4.69414012,16.8137921 4.82574903,16.9360292 C6.21959951,18.2321664 8.04859333,19.0340522 9.97578298,19.1933581 C9.98550315,19.1942066 9.99494718,19.1946309 10.0044464,19.1946309 C10.1746599,19.1946309 10.3194131,19.0694771 10.3343248,18.9037544 C10.3500648,18.7286982 10.2148108,18.5745893 10.0325024,18.5594754" id="Fill-10" fill="#69BEAB"></path>
                    <path d="M15.2711913,4.3385791 C15.1237545,4.23724535 14.9223365,4.27540155 14.8214388,4.4237928 C14.7207568,4.57223833 14.7586676,4.77490583 14.9060505,4.87645668 C16.409324,5.9104734 17.4967652,7.44909636 17.9679807,9.20884074 C18.0069162,9.35402969 18.1375277,9.44966443 18.2801651,9.44966443 C18.3079915,9.44966443 18.3364111,9.4460822 18.364615,9.43842925 C18.5371819,9.39158885 18.63932,9.21285718 18.5927808,9.03922747 C18.0814974,7.12957211 16.9018408,5.46036051 15.2711913,4.3385791" id="Fill-12" fill="#69BEAB"></path>
                </g>
                <g id="aPI" transform="translate(6.939597, 9.154362)">
                    <g id="Group-3" transform="translate(3.543624, 0.000000)">
                        <mask id="mask-4" fill="white">
                            <use xlink:href="#path-3"></use>
                        </mask>
                        <g id="Clip-2"></g>
                        <path d="M1.56238158,1.89176122 L0.660152862,1.89176122 L0.660152862,0.738237731 L1.56238158,0.738237731 C1.86558147,0.738237731 2.11245395,0.996857697 2.11245395,1.31499948 C2.11245395,1.63296823 1.86558147,1.89176122 1.56238158,1.89176122 M1.56238158,0.0461236367 L0.330109435,0.0461236367 C0.147870457,0.0461236367 6.60086854e-05,0.201099518 6.60086854e-05,0.392180684 L6.60086854e-05,3.34514314 C6.60086854e-05,3.53628198 0.147870457,3.69120019 0.330109435,3.69120019 C0.512293407,3.69120019 0.660152862,3.53628198 0.660152862,3.34514314 L0.660152862,2.58387531 L1.56238158,2.58387531 C2.22956436,2.58387531 2.77254081,2.0145538 2.77254081,1.31499948 C2.77254081,0.615214451 2.22956436,0.0461236367 1.56238158,0.0461236367" id="Fill-1" fill="#FFFFFF" mask="url(#mask-4)"></path>
                    </g>
                    <g id="Group-6">
                        <mask id="mask-6" fill="white">
                            <use xlink:href="#path-5"></use>
                        </mask>
                        <g id="Clip-5"></g>
                        <path d="M1.1088689,2.26079646 L1.61862753,0.885565751 L2.12821519,2.26079646 L1.1088689,2.26079646 Z M2.12109168,0.270737731 C2.07099913,0.135602454 1.94345974,0.0461467072 1.80098947,0.0461467072 L1.43609462,0.0461467072 C1.29362435,0.0461467072 1.16608496,0.135602454 1.11599242,0.270737731 L0.0218777346,3.22370019 C-0.0444564229,3.40261168 0.0452428588,3.60199822 0.221962981,3.66913328 C0.398740092,3.73626835 0.595975933,3.64571676 0.662082138,3.46657456 L0.852422418,2.95291055 L2.38466167,2.95291055 L2.57500195,3.46657456 C2.62640523,3.60557414 2.75662305,3.69122326 2.89510416,3.69122326 C2.93493884,3.69122326 2.97545739,3.68424444 3.01506412,3.66913328 C3.19184123,3.60222892 3.28154052,3.40261168 3.21520636,3.22370019 L2.12109168,0.270737731 Z" id="Fill-4" fill="#FFFFFF" mask="url(#mask-6)"></path>
                    </g>
                    <g id="Group-9" transform="translate(6.791946, 0.000000)">
                        <mask id="mask-8" fill="white">
                            <use xlink:href="#path-7"></use>
                        </mask>
                        <g id="Clip-8"></g>
                        <path d="M0.374942695,0.0461236367 C0.186630872,0.0461236367 0.0342096025,0.201099518 0.0342096025,0.392180684 L0.0342096025,3.34514314 C0.0342096025,3.53628198 0.186630872,3.69120019 0.374942695,3.69120019 C0.563084151,3.69120019 0.715675787,3.53628198 0.715675787,3.34514314 L0.715675787,0.392180684 C0.715675787,0.201099518 0.563084151,0.0461236367 0.374942695,0.0461236367" id="Fill-7" fill="#FFFFFF" mask="url(#mask-8)"></path>
                    </g>
                </g>
            </g>
        </g>
    </g>
</svg>