<?xml version="1.0" encoding="UTF-8"?>
<svg width="15px" height="19px" viewBox="0 0 15 19" version="1.1" xmlns="http://www.w3.org/2000/svg">
    <g stroke="none" stroke-width="1" fill="none" fill-rule="evenodd">
        <g fill="#69BEAB">
            <path d="M2.63846667,16.699575 C2.22521667,16.699575 1.89113333,16.2926583 1.89113333,15.7907417 L1.89113333,6.734075 C1.89113333,6.23215833 2.22521667,5.82365833 2.63846667,5.82365833 L3.23063333,5.82365833 C3.6423,5.82365833 3.97638333,6.23215833 3.97638333,6.734075 L3.97638333,15.7907417 C3.97638333,16.2926583 3.6423,16.699575 3.23063333,16.699575 L2.63846667,16.699575 Z" id="Fill-4"></path>
            <path d="M11.9041333,13.1803 L11.9041333,15.9527167 C11.9041333,16.3659667 11.57005,16.70005 11.1568,16.70005 L10.5662167,16.70005 C10.1529667,16.70005 9.81888333,16.3659667 9.81888333,15.9527167 L9.81888333,13.1803 C9.81888333,12.76705 10.1529667,12.4313833 10.5662167,12.4313833 L11.1568,12.4313833 C11.57005,12.4313833 11.9041333,12.76705 11.9041333,13.1803" id="Fill-6"></path>
            <path d="M5.85453333,16.0455 L5.85453333,9.83408333 C5.85453333,9.47308333 6.18861667,9.18016667 6.60186667,9.18016667 L7.19403333,9.18016667 C7.6057,9.18016667 7.93978333,9.47308333 7.93978333,9.83408333 L7.93978333,16.0455 C7.93978333,16.4080833 7.6057,16.6994167 7.19403333,16.6994167 L6.60186667,16.6994167 C6.18861667,16.6994167 5.85453333,16.4080833 5.85453333,16.0455" id="Fill-8"></path>
            <path d="M13.7705667,17.3150167 C13.7705667,17.5525167 13.5758167,17.7472667 13.3383167,17.7472667 L1.04531667,17.7472667 C0.806233333,17.7472667 0.613066667,17.5525167 0.613066667,17.3150167 L0.613066667,1.04626667 C0.613066667,0.8056 0.806233333,0.612433333 1.04531667,0.612433333 L9.05381667,0.612433333 C9.2929,0.612433333 9.48606667,0.8056 9.48606667,1.04626667 L9.48606667,4.46468333 C9.48606667,4.70218333 9.68081667,4.89535 9.9199,4.89535 L13.3383167,4.89535 C13.5758167,4.89535 13.7705667,5.0901 13.7705667,5.32918333 L13.7705667,17.3150167 Z M10.0972333,1.59093333 C10.0972333,1.38826667 10.3410667,1.28851667 10.4835667,1.43101667 L12.9504,3.89626667 C13.0929,4.04035 12.9915667,4.28418333 12.7904833,4.28418333 L10.32365,4.28418333 C10.1985667,4.28418333 10.0972333,4.18285 10.0972333,4.05776667 L10.0972333,1.59093333 Z M14.25665,4.33643333 L10.0449833,0.127933333 C9.96423333,0.0456 9.8534,-0.000316666667 9.7394,-0.000316666667 L0.432566667,-0.000316666667 C0.193483333,-0.000316666667 0.000316666667,0.194433333 0.000316666667,0.433516667 L0.000316666667,17.9277667 C0.000316666667,18.16685 0.193483333,18.3600167 0.432566667,18.3600167 L13.9510667,18.3600167 C14.19015,18.3600167 14.3833167,18.16685 14.3833167,17.9277667 L14.3833167,4.64201667 C14.3833167,4.52801667 14.3374,4.41718333 14.25665,4.33643333 L14.25665,4.33643333 Z" id="Fill-1"></path>
        </g>
    </g>
</svg>
